<mxfile host="Electron" modified="2023-05-05T21:52:06.060Z" agent="Mozilla/5.0 (Windows NT 10.0; Win64; x64) AppleWebKit/537.36 (KHTML, like Gecko) draw.io/21.1.2 Chrome/106.0.5249.199 Electron/21.4.3 Safari/537.36" etag="FKHIxCjp3aOXUa5f8LG6" version="21.1.2" type="device">
  <diagram name="PÃ¡gina-1" id="XmGxFaE3mnlU_NUjQFGg">
    <mxGraphModel dx="798" dy="582" grid="1" gridSize="10" guides="1" tooltips="1" connect="1" arrows="1" fold="1" page="0" pageScale="1" pageWidth="827" pageHeight="1169" math="0" shadow="0">
      <root>
        <mxCell id="0" />
        <mxCell id="1" parent="0" />
        <mxCell id="asxP7VaCUAAhCk6-8vd_-1" value="id_materia" style="ellipse;whiteSpace=wrap;html=1;align=center;fontStyle=4;rounded=0;" vertex="1" parent="1">
          <mxGeometry x="1270" y="120" width="100" height="40" as="geometry" />
        </mxCell>
        <mxCell id="asxP7VaCUAAhCk6-8vd_-2" value="nombre" style="ellipse;whiteSpace=wrap;html=1;align=center;rounded=0;" vertex="1" parent="1">
          <mxGeometry x="1380" y="120" width="100" height="40" as="geometry" />
        </mxCell>
        <mxCell id="asxP7VaCUAAhCk6-8vd_-3" value="programa" style="ellipse;whiteSpace=wrap;html=1;align=center;rounded=0;" vertex="1" parent="1">
          <mxGeometry x="1490" y="120" width="100" height="40" as="geometry" />
        </mxCell>
        <mxCell id="asxP7VaCUAAhCk6-8vd_-6" style="edgeStyle=orthogonalEdgeStyle;rounded=0;orthogonalLoop=1;jettySize=auto;html=1;endArrow=none;endFill=0;" edge="1" parent="1" source="asxP7VaCUAAhCk6-8vd_-11" target="asxP7VaCUAAhCk6-8vd_-1">
          <mxGeometry relative="1" as="geometry">
            <Array as="points">
              <mxPoint x="1540" y="180" />
              <mxPoint x="1320" y="180" />
            </Array>
          </mxGeometry>
        </mxCell>
        <mxCell id="asxP7VaCUAAhCk6-8vd_-7" style="edgeStyle=orthogonalEdgeStyle;rounded=0;orthogonalLoop=1;jettySize=auto;html=1;entryX=0.5;entryY=1;entryDx=0;entryDy=0;endArrow=none;endFill=0;" edge="1" parent="1" source="asxP7VaCUAAhCk6-8vd_-11" target="asxP7VaCUAAhCk6-8vd_-2">
          <mxGeometry relative="1" as="geometry">
            <Array as="points">
              <mxPoint x="1540" y="180" />
              <mxPoint x="1430" y="180" />
            </Array>
          </mxGeometry>
        </mxCell>
        <mxCell id="asxP7VaCUAAhCk6-8vd_-8" style="edgeStyle=orthogonalEdgeStyle;rounded=0;orthogonalLoop=1;jettySize=auto;html=1;entryX=0.5;entryY=1;entryDx=0;entryDy=0;endArrow=none;endFill=0;" edge="1" parent="1" source="asxP7VaCUAAhCk6-8vd_-11" target="asxP7VaCUAAhCk6-8vd_-3">
          <mxGeometry relative="1" as="geometry" />
        </mxCell>
        <mxCell id="asxP7VaCUAAhCk6-8vd_-9" style="edgeStyle=orthogonalEdgeStyle;rounded=0;orthogonalLoop=1;jettySize=auto;html=1;endArrow=none;endFill=0;" edge="1" parent="1" source="asxP7VaCUAAhCk6-8vd_-11">
          <mxGeometry relative="1" as="geometry">
            <Array as="points">
              <mxPoint x="1540" y="180" />
              <mxPoint x="1650" y="180" />
            </Array>
            <mxPoint x="1650" y="160" as="targetPoint" />
          </mxGeometry>
        </mxCell>
        <mxCell id="asxP7VaCUAAhCk6-8vd_-10" style="edgeStyle=orthogonalEdgeStyle;rounded=0;orthogonalLoop=1;jettySize=auto;html=1;endArrow=none;endFill=0;" edge="1" parent="1" source="asxP7VaCUAAhCk6-8vd_-11">
          <mxGeometry relative="1" as="geometry">
            <Array as="points">
              <mxPoint x="1540" y="180" />
              <mxPoint x="1760" y="180" />
            </Array>
            <mxPoint x="1760" y="160" as="targetPoint" />
          </mxGeometry>
        </mxCell>
        <mxCell id="asxP7VaCUAAhCk6-8vd_-62" style="edgeStyle=orthogonalEdgeStyle;rounded=0;orthogonalLoop=1;jettySize=auto;html=1;entryX=0.5;entryY=0;entryDx=0;entryDy=0;" edge="1" parent="1" source="asxP7VaCUAAhCk6-8vd_-11" target="asxP7VaCUAAhCk6-8vd_-61">
          <mxGeometry relative="1" as="geometry" />
        </mxCell>
        <mxCell id="asxP7VaCUAAhCk6-8vd_-108" value="(1,*)" style="edgeLabel;html=1;align=center;verticalAlign=middle;resizable=0;points=[];" vertex="1" connectable="0" parent="asxP7VaCUAAhCk6-8vd_-62">
          <mxGeometry x="-0.8855" y="-3" relative="1" as="geometry">
            <mxPoint x="-1" as="offset" />
          </mxGeometry>
        </mxCell>
        <mxCell id="asxP7VaCUAAhCk6-8vd_-65" style="edgeStyle=orthogonalEdgeStyle;rounded=0;orthogonalLoop=1;jettySize=auto;html=1;entryX=0.5;entryY=0;entryDx=0;entryDy=0;" edge="1" parent="1" source="asxP7VaCUAAhCk6-8vd_-11" target="asxP7VaCUAAhCk6-8vd_-64">
          <mxGeometry relative="1" as="geometry" />
        </mxCell>
        <mxCell id="asxP7VaCUAAhCk6-8vd_-110" value="(0,*)" style="edgeLabel;html=1;align=center;verticalAlign=middle;resizable=0;points=[];" vertex="1" connectable="0" parent="asxP7VaCUAAhCk6-8vd_-65">
          <mxGeometry x="-0.8325" y="-1" relative="1" as="geometry">
            <mxPoint as="offset" />
          </mxGeometry>
        </mxCell>
        <mxCell id="asxP7VaCUAAhCk6-8vd_-69" style="edgeStyle=orthogonalEdgeStyle;rounded=0;orthogonalLoop=1;jettySize=auto;html=1;entryX=0.5;entryY=0;entryDx=0;entryDy=0;" edge="1" parent="1" source="asxP7VaCUAAhCk6-8vd_-11" target="asxP7VaCUAAhCk6-8vd_-68">
          <mxGeometry relative="1" as="geometry" />
        </mxCell>
        <mxCell id="asxP7VaCUAAhCk6-8vd_-111" value="(0,*)" style="edgeLabel;html=1;align=center;verticalAlign=middle;resizable=0;points=[];" vertex="1" connectable="0" parent="asxP7VaCUAAhCk6-8vd_-69">
          <mxGeometry x="-0.8546" y="1" relative="1" as="geometry">
            <mxPoint as="offset" />
          </mxGeometry>
        </mxCell>
        <mxCell id="asxP7VaCUAAhCk6-8vd_-11" value="Materia" style="rounded=0;arcSize=10;whiteSpace=wrap;html=1;align=center;" vertex="1" parent="1">
          <mxGeometry x="1490" y="200" width="100" height="40" as="geometry" />
        </mxCell>
        <mxCell id="asxP7VaCUAAhCk6-8vd_-12" value="horas_totales" style="ellipse;whiteSpace=wrap;html=1;align=center;dashed=1;" vertex="1" parent="1">
          <mxGeometry x="1710" y="120" width="100" height="40" as="geometry" />
        </mxCell>
        <mxCell id="asxP7VaCUAAhCk6-8vd_-13" value="carreras" style="ellipse;shape=doubleEllipse;margin=3;whiteSpace=wrap;html=1;align=center;" vertex="1" parent="1">
          <mxGeometry x="1600" y="120" width="100" height="40" as="geometry" />
        </mxCell>
        <mxCell id="asxP7VaCUAAhCk6-8vd_-32" style="edgeStyle=orthogonalEdgeStyle;rounded=0;orthogonalLoop=1;jettySize=auto;html=1;entryX=0;entryY=0.5;entryDx=0;entryDy=0;endArrow=none;endFill=0;" edge="1" parent="1" target="asxP7VaCUAAhCk6-8vd_-39">
          <mxGeometry relative="1" as="geometry">
            <mxPoint x="2090" y="395" as="sourcePoint" />
          </mxGeometry>
        </mxCell>
        <mxCell id="asxP7VaCUAAhCk6-8vd_-33" style="edgeStyle=orthogonalEdgeStyle;rounded=0;orthogonalLoop=1;jettySize=auto;html=1;entryX=0;entryY=0.5;entryDx=0;entryDy=0;endArrow=none;endFill=0;" edge="1" parent="1" target="asxP7VaCUAAhCk6-8vd_-40">
          <mxGeometry relative="1" as="geometry">
            <mxPoint x="2128" y="305" as="targetPoint" />
            <mxPoint x="2090" y="395" as="sourcePoint" />
          </mxGeometry>
        </mxCell>
        <mxCell id="asxP7VaCUAAhCk6-8vd_-34" style="edgeStyle=orthogonalEdgeStyle;rounded=0;orthogonalLoop=1;jettySize=auto;html=1;entryX=0;entryY=0.5;entryDx=0;entryDy=0;endArrow=none;endFill=0;" edge="1" parent="1" target="asxP7VaCUAAhCk6-8vd_-41">
          <mxGeometry relative="1" as="geometry">
            <mxPoint x="2090" y="395" as="sourcePoint" />
          </mxGeometry>
        </mxCell>
        <mxCell id="asxP7VaCUAAhCk6-8vd_-35" style="edgeStyle=orthogonalEdgeStyle;rounded=0;orthogonalLoop=1;jettySize=auto;html=1;entryX=0;entryY=0.5;entryDx=0;entryDy=0;endArrow=none;endFill=0;" edge="1" parent="1" target="asxP7VaCUAAhCk6-8vd_-42">
          <mxGeometry relative="1" as="geometry">
            <mxPoint x="2090" y="395" as="sourcePoint" />
          </mxGeometry>
        </mxCell>
        <mxCell id="asxP7VaCUAAhCk6-8vd_-36" style="edgeStyle=orthogonalEdgeStyle;rounded=0;orthogonalLoop=1;jettySize=auto;html=1;entryX=0;entryY=0.5;entryDx=0;entryDy=0;endArrow=none;endFill=0;" edge="1" parent="1" target="asxP7VaCUAAhCk6-8vd_-43">
          <mxGeometry relative="1" as="geometry">
            <mxPoint x="2090" y="395" as="sourcePoint" />
          </mxGeometry>
        </mxCell>
        <mxCell id="asxP7VaCUAAhCk6-8vd_-46" style="edgeStyle=orthogonalEdgeStyle;rounded=0;orthogonalLoop=1;jettySize=auto;html=1;entryX=0;entryY=0.5;entryDx=0;entryDy=0;" edge="1" parent="1" target="asxP7VaCUAAhCk6-8vd_-45">
          <mxGeometry relative="1" as="geometry">
            <mxPoint x="2090" y="395" as="sourcePoint" />
            <Array as="points">
              <mxPoint x="2090" y="390" />
              <mxPoint x="2110" y="390" />
              <mxPoint x="2110" y="580" />
            </Array>
          </mxGeometry>
        </mxCell>
        <mxCell id="asxP7VaCUAAhCk6-8vd_-60" style="edgeStyle=orthogonalEdgeStyle;rounded=0;orthogonalLoop=1;jettySize=auto;html=1;entryX=0;entryY=0.5;entryDx=0;entryDy=0;" edge="1" parent="1" target="asxP7VaCUAAhCk6-8vd_-59">
          <mxGeometry relative="1" as="geometry">
            <mxPoint x="2090" y="395" as="sourcePoint" />
            <Array as="points">
              <mxPoint x="2090" y="390" />
              <mxPoint x="2110" y="390" />
              <mxPoint x="2110" y="525" />
            </Array>
          </mxGeometry>
        </mxCell>
        <mxCell id="asxP7VaCUAAhCk6-8vd_-107" style="edgeStyle=orthogonalEdgeStyle;rounded=0;orthogonalLoop=1;jettySize=auto;html=1;entryX=0;entryY=0.5;entryDx=0;entryDy=0;" edge="1" parent="1" source="asxP7VaCUAAhCk6-8vd_-38" target="asxP7VaCUAAhCk6-8vd_-106">
          <mxGeometry relative="1" as="geometry">
            <Array as="points">
              <mxPoint x="2110" y="390" />
              <mxPoint x="2110" y="640" />
            </Array>
          </mxGeometry>
        </mxCell>
        <mxCell id="asxP7VaCUAAhCk6-8vd_-38" value="Alumno" style="rounded=0;arcSize=10;whiteSpace=wrap;html=1;align=center;" vertex="1" parent="1">
          <mxGeometry x="1990" y="370" width="100" height="40" as="geometry" />
        </mxCell>
        <mxCell id="asxP7VaCUAAhCk6-8vd_-39" value="id_alumno" style="ellipse;whiteSpace=wrap;html=1;align=center;fontStyle=4;rounded=0;" vertex="1" parent="1">
          <mxGeometry x="2130" y="245" width="100" height="40" as="geometry" />
        </mxCell>
        <mxCell id="asxP7VaCUAAhCk6-8vd_-40" value="nombre" style="ellipse;whiteSpace=wrap;html=1;align=center;rounded=0;" vertex="1" parent="1">
          <mxGeometry x="2130" y="295" width="100" height="40" as="geometry" />
        </mxCell>
        <mxCell id="asxP7VaCUAAhCk6-8vd_-41" value="apellido" style="ellipse;whiteSpace=wrap;html=1;align=center;rounded=0;" vertex="1" parent="1">
          <mxGeometry x="2130" y="345" width="100" height="40" as="geometry" />
        </mxCell>
        <mxCell id="asxP7VaCUAAhCk6-8vd_-42" value="num_matricula" style="ellipse;whiteSpace=wrap;html=1;align=center;rounded=0;" vertex="1" parent="1">
          <mxGeometry x="2130" y="405" width="100" height="40" as="geometry" />
        </mxCell>
        <mxCell id="asxP7VaCUAAhCk6-8vd_-43" value="DNI" style="ellipse;whiteSpace=wrap;html=1;align=center;rounded=0;" vertex="1" parent="1">
          <mxGeometry x="2130" y="455" width="100" height="40" as="geometry" />
        </mxCell>
        <mxCell id="asxP7VaCUAAhCk6-8vd_-45" value="promedio_general" style="ellipse;whiteSpace=wrap;html=1;align=center;dashed=1;" vertex="1" parent="1">
          <mxGeometry x="2130" y="560" width="110" height="40" as="geometry" />
        </mxCell>
        <mxCell id="asxP7VaCUAAhCk6-8vd_-47" value="id_horario" style="ellipse;whiteSpace=wrap;html=1;align=center;fontStyle=4;rounded=0;" vertex="1" parent="1">
          <mxGeometry x="1270" y="685" width="100" height="40" as="geometry" />
        </mxCell>
        <mxCell id="asxP7VaCUAAhCk6-8vd_-48" value="dia" style="ellipse;whiteSpace=wrap;html=1;align=center;rounded=0;" vertex="1" parent="1">
          <mxGeometry x="1380" y="685" width="100" height="40" as="geometry" />
        </mxCell>
        <mxCell id="asxP7VaCUAAhCk6-8vd_-49" value="hora_inicio" style="ellipse;whiteSpace=wrap;html=1;align=center;rounded=0;" vertex="1" parent="1">
          <mxGeometry x="1490" y="685" width="100" height="40" as="geometry" />
        </mxCell>
        <mxCell id="asxP7VaCUAAhCk6-8vd_-50" value="hora_fin" style="ellipse;whiteSpace=wrap;html=1;align=center;rounded=0;" vertex="1" parent="1">
          <mxGeometry x="1600" y="685" width="100" height="40" as="geometry" />
        </mxCell>
        <mxCell id="asxP7VaCUAAhCk6-8vd_-52" style="edgeStyle=orthogonalEdgeStyle;rounded=0;orthogonalLoop=1;jettySize=auto;html=1;entryX=0.5;entryY=0;entryDx=0;entryDy=0;endArrow=none;endFill=0;" edge="1" parent="1" source="asxP7VaCUAAhCk6-8vd_-57" target="asxP7VaCUAAhCk6-8vd_-47">
          <mxGeometry relative="1" as="geometry">
            <Array as="points">
              <mxPoint x="1540" y="665" />
              <mxPoint x="1320" y="665" />
            </Array>
          </mxGeometry>
        </mxCell>
        <mxCell id="asxP7VaCUAAhCk6-8vd_-53" style="edgeStyle=orthogonalEdgeStyle;rounded=0;orthogonalLoop=1;jettySize=auto;html=1;entryX=0.5;entryY=0;entryDx=0;entryDy=0;endArrow=none;endFill=0;" edge="1" parent="1" source="asxP7VaCUAAhCk6-8vd_-57" target="asxP7VaCUAAhCk6-8vd_-48">
          <mxGeometry relative="1" as="geometry">
            <Array as="points">
              <mxPoint x="1540" y="665" />
              <mxPoint x="1430" y="665" />
            </Array>
          </mxGeometry>
        </mxCell>
        <mxCell id="asxP7VaCUAAhCk6-8vd_-54" style="edgeStyle=orthogonalEdgeStyle;rounded=0;orthogonalLoop=1;jettySize=auto;html=1;entryX=0.5;entryY=0;entryDx=0;entryDy=0;endArrow=none;endFill=0;" edge="1" parent="1" source="asxP7VaCUAAhCk6-8vd_-57" target="asxP7VaCUAAhCk6-8vd_-49">
          <mxGeometry relative="1" as="geometry" />
        </mxCell>
        <mxCell id="asxP7VaCUAAhCk6-8vd_-55" style="edgeStyle=orthogonalEdgeStyle;rounded=0;orthogonalLoop=1;jettySize=auto;html=1;endArrow=none;endFill=0;" edge="1" parent="1" source="asxP7VaCUAAhCk6-8vd_-57" target="asxP7VaCUAAhCk6-8vd_-50">
          <mxGeometry relative="1" as="geometry">
            <Array as="points">
              <mxPoint x="1540" y="665" />
              <mxPoint x="1650" y="665" />
            </Array>
          </mxGeometry>
        </mxCell>
        <mxCell id="asxP7VaCUAAhCk6-8vd_-56" style="edgeStyle=orthogonalEdgeStyle;rounded=0;orthogonalLoop=1;jettySize=auto;html=1;entryX=0.5;entryY=0;entryDx=0;entryDy=0;endArrow=none;endFill=0;" edge="1" parent="1" source="asxP7VaCUAAhCk6-8vd_-57">
          <mxGeometry relative="1" as="geometry">
            <Array as="points">
              <mxPoint x="1540" y="665" />
              <mxPoint x="1760" y="665" />
            </Array>
            <mxPoint x="1760" y="685" as="targetPoint" />
          </mxGeometry>
        </mxCell>
        <mxCell id="asxP7VaCUAAhCk6-8vd_-70" style="edgeStyle=orthogonalEdgeStyle;rounded=0;orthogonalLoop=1;jettySize=auto;html=1;entryX=0.5;entryY=1;entryDx=0;entryDy=0;" edge="1" parent="1" source="asxP7VaCUAAhCk6-8vd_-57" target="asxP7VaCUAAhCk6-8vd_-68">
          <mxGeometry relative="1" as="geometry" />
        </mxCell>
        <mxCell id="asxP7VaCUAAhCk6-8vd_-112" value="(0,*)" style="edgeLabel;html=1;align=center;verticalAlign=middle;resizable=0;points=[];" vertex="1" connectable="0" parent="asxP7VaCUAAhCk6-8vd_-70">
          <mxGeometry x="-0.2459" y="-1" relative="1" as="geometry">
            <mxPoint as="offset" />
          </mxGeometry>
        </mxCell>
        <mxCell id="asxP7VaCUAAhCk6-8vd_-57" value="Horario" style="rounded=0;arcSize=10;whiteSpace=wrap;html=1;align=center;" vertex="1" parent="1">
          <mxGeometry x="1490" y="605" width="100" height="40" as="geometry" />
        </mxCell>
        <mxCell id="asxP7VaCUAAhCk6-8vd_-58" value="duracion" style="ellipse;whiteSpace=wrap;html=1;align=center;dashed=1;" vertex="1" parent="1">
          <mxGeometry x="1710" y="685" width="100" height="40" as="geometry" />
        </mxCell>
        <mxCell id="asxP7VaCUAAhCk6-8vd_-59" value="cant_materias_aprobadas" style="ellipse;whiteSpace=wrap;html=1;align=center;dashed=1;" vertex="1" parent="1">
          <mxGeometry x="2130" y="505" width="145" height="40" as="geometry" />
        </mxCell>
        <mxCell id="asxP7VaCUAAhCk6-8vd_-66" style="edgeStyle=orthogonalEdgeStyle;rounded=0;orthogonalLoop=1;jettySize=auto;html=1;entryX=0.5;entryY=0;entryDx=0;entryDy=0;" edge="1" parent="1" source="asxP7VaCUAAhCk6-8vd_-64" target="asxP7VaCUAAhCk6-8vd_-38">
          <mxGeometry relative="1" as="geometry" />
        </mxCell>
        <mxCell id="asxP7VaCUAAhCk6-8vd_-105" value="(0,*)" style="edgeLabel;html=1;align=center;verticalAlign=middle;resizable=0;points=[];" vertex="1" connectable="0" parent="asxP7VaCUAAhCk6-8vd_-66">
          <mxGeometry x="0.3211" y="1" relative="1" as="geometry">
            <mxPoint as="offset" />
          </mxGeometry>
        </mxCell>
        <mxCell id="asxP7VaCUAAhCk6-8vd_-84" style="edgeStyle=orthogonalEdgeStyle;rounded=0;orthogonalLoop=1;jettySize=auto;html=1;entryX=1;entryY=0.5;entryDx=0;entryDy=0;" edge="1" parent="1" source="asxP7VaCUAAhCk6-8vd_-64" target="asxP7VaCUAAhCk6-8vd_-73">
          <mxGeometry relative="1" as="geometry" />
        </mxCell>
        <mxCell id="asxP7VaCUAAhCk6-8vd_-85" style="edgeStyle=orthogonalEdgeStyle;rounded=0;orthogonalLoop=1;jettySize=auto;html=1;entryX=1;entryY=0.5;entryDx=0;entryDy=0;" edge="1" parent="1" source="asxP7VaCUAAhCk6-8vd_-64">
          <mxGeometry relative="1" as="geometry">
            <mxPoint x="1890" y="330" as="targetPoint" />
            <Array as="points">
              <mxPoint x="1940" y="265" />
              <mxPoint x="1940" y="330" />
            </Array>
          </mxGeometry>
        </mxCell>
        <mxCell id="asxP7VaCUAAhCk6-8vd_-86" style="edgeStyle=orthogonalEdgeStyle;rounded=0;orthogonalLoop=1;jettySize=auto;html=1;entryX=1;entryY=0.5;entryDx=0;entryDy=0;" edge="1" parent="1" source="asxP7VaCUAAhCk6-8vd_-64" target="asxP7VaCUAAhCk6-8vd_-74">
          <mxGeometry relative="1" as="geometry">
            <Array as="points">
              <mxPoint x="1940" y="265" />
              <mxPoint x="1940" y="400" />
            </Array>
          </mxGeometry>
        </mxCell>
        <mxCell id="asxP7VaCUAAhCk6-8vd_-64" value="Relationship" style="shape=rhombus;perimeter=rhombusPerimeter;whiteSpace=wrap;html=1;align=center;" vertex="1" parent="1">
          <mxGeometry x="1995" y="245" width="90" height="40" as="geometry" />
        </mxCell>
        <mxCell id="asxP7VaCUAAhCk6-8vd_-68" value="Relationship" style="shape=rhombus;perimeter=rhombusPerimeter;whiteSpace=wrap;html=1;align=center;" vertex="1" parent="1">
          <mxGeometry x="1480" y="470" width="120" height="60" as="geometry" />
        </mxCell>
        <mxCell id="asxP7VaCUAAhCk6-8vd_-71" value="&lt;span style=&quot;border-bottom: 1px dotted&quot;&gt;horas&lt;/span&gt;" style="ellipse;whiteSpace=wrap;html=1;align=center;" vertex="1" parent="1">
          <mxGeometry x="1241" y="265" width="80" height="30" as="geometry" />
        </mxCell>
        <mxCell id="asxP7VaCUAAhCk6-8vd_-72" style="edgeStyle=orthogonalEdgeStyle;rounded=0;orthogonalLoop=1;jettySize=auto;html=1;entryX=0;entryY=0.5;entryDx=0;entryDy=0;" edge="1" parent="1" source="asxP7VaCUAAhCk6-8vd_-61" target="asxP7VaCUAAhCk6-8vd_-71">
          <mxGeometry relative="1" as="geometry" />
        </mxCell>
        <mxCell id="asxP7VaCUAAhCk6-8vd_-15" value="id_profesor" style="ellipse;whiteSpace=wrap;html=1;align=center;fontStyle=4;rounded=0;" vertex="1" parent="1">
          <mxGeometry x="940" y="250" width="100" height="40" as="geometry" />
        </mxCell>
        <mxCell id="asxP7VaCUAAhCk6-8vd_-101" style="edgeStyle=orthogonalEdgeStyle;rounded=0;orthogonalLoop=1;jettySize=auto;html=1;entryX=1;entryY=0.5;entryDx=0;entryDy=0;" edge="1" parent="1" source="asxP7VaCUAAhCk6-8vd_-16" target="asxP7VaCUAAhCk6-8vd_-98">
          <mxGeometry relative="1" as="geometry" />
        </mxCell>
        <mxCell id="asxP7VaCUAAhCk6-8vd_-102" style="edgeStyle=orthogonalEdgeStyle;rounded=0;orthogonalLoop=1;jettySize=auto;html=1;entryX=1;entryY=0.5;entryDx=0;entryDy=0;" edge="1" parent="1" source="asxP7VaCUAAhCk6-8vd_-16" target="asxP7VaCUAAhCk6-8vd_-99">
          <mxGeometry relative="1" as="geometry" />
        </mxCell>
        <mxCell id="asxP7VaCUAAhCk6-8vd_-103" style="edgeStyle=orthogonalEdgeStyle;rounded=0;orthogonalLoop=1;jettySize=auto;html=1;entryX=1;entryY=0.5;entryDx=0;entryDy=0;" edge="1" parent="1" source="asxP7VaCUAAhCk6-8vd_-16" target="asxP7VaCUAAhCk6-8vd_-100">
          <mxGeometry relative="1" as="geometry" />
        </mxCell>
        <mxCell id="asxP7VaCUAAhCk6-8vd_-16" value="nombre_completo" style="ellipse;whiteSpace=wrap;html=1;align=center;rounded=0;" vertex="1" parent="1">
          <mxGeometry x="940" y="300" width="100" height="40" as="geometry" />
        </mxCell>
        <mxCell id="asxP7VaCUAAhCk6-8vd_-17" value="profesion" style="ellipse;whiteSpace=wrap;html=1;align=center;rounded=0;" vertex="1" parent="1">
          <mxGeometry x="940" y="350" width="100" height="40" as="geometry" />
        </mxCell>
        <mxCell id="asxP7VaCUAAhCk6-8vd_-18" value="DNI" style="ellipse;whiteSpace=wrap;html=1;align=center;rounded=0;" vertex="1" parent="1">
          <mxGeometry x="940" y="410" width="100" height="40" as="geometry" />
        </mxCell>
        <mxCell id="asxP7VaCUAAhCk6-8vd_-19" value="fecha_ingreso" style="ellipse;whiteSpace=wrap;html=1;align=center;rounded=0;" vertex="1" parent="1">
          <mxGeometry x="940" y="460" width="100" height="40" as="geometry" />
        </mxCell>
        <mxCell id="asxP7VaCUAAhCk6-8vd_-21" style="edgeStyle=orthogonalEdgeStyle;rounded=0;orthogonalLoop=1;jettySize=auto;html=1;entryX=1;entryY=0.5;entryDx=0;entryDy=0;endArrow=none;endFill=0;" edge="1" parent="1" source="asxP7VaCUAAhCk6-8vd_-27" target="asxP7VaCUAAhCk6-8vd_-15">
          <mxGeometry relative="1" as="geometry" />
        </mxCell>
        <mxCell id="asxP7VaCUAAhCk6-8vd_-22" style="edgeStyle=orthogonalEdgeStyle;rounded=0;orthogonalLoop=1;jettySize=auto;html=1;entryX=1;entryY=0.5;entryDx=0;entryDy=0;endArrow=none;endFill=0;" edge="1" parent="1" source="asxP7VaCUAAhCk6-8vd_-27" target="asxP7VaCUAAhCk6-8vd_-16">
          <mxGeometry relative="1" as="geometry" />
        </mxCell>
        <mxCell id="asxP7VaCUAAhCk6-8vd_-23" style="edgeStyle=orthogonalEdgeStyle;rounded=0;orthogonalLoop=1;jettySize=auto;html=1;entryX=1;entryY=0.5;entryDx=0;entryDy=0;endArrow=none;endFill=0;" edge="1" parent="1" source="asxP7VaCUAAhCk6-8vd_-27" target="asxP7VaCUAAhCk6-8vd_-17">
          <mxGeometry relative="1" as="geometry" />
        </mxCell>
        <mxCell id="asxP7VaCUAAhCk6-8vd_-24" style="edgeStyle=orthogonalEdgeStyle;rounded=0;orthogonalLoop=1;jettySize=auto;html=1;entryX=1;entryY=0.5;entryDx=0;entryDy=0;endArrow=none;endFill=0;" edge="1" parent="1" source="asxP7VaCUAAhCk6-8vd_-27" target="asxP7VaCUAAhCk6-8vd_-18">
          <mxGeometry relative="1" as="geometry" />
        </mxCell>
        <mxCell id="asxP7VaCUAAhCk6-8vd_-25" style="edgeStyle=orthogonalEdgeStyle;rounded=0;orthogonalLoop=1;jettySize=auto;html=1;entryX=1;entryY=0.5;entryDx=0;entryDy=0;endArrow=none;endFill=0;" edge="1" parent="1" source="asxP7VaCUAAhCk6-8vd_-27" target="asxP7VaCUAAhCk6-8vd_-19">
          <mxGeometry relative="1" as="geometry" />
        </mxCell>
        <mxCell id="asxP7VaCUAAhCk6-8vd_-30" style="edgeStyle=orthogonalEdgeStyle;rounded=0;orthogonalLoop=1;jettySize=auto;html=1;entryX=1;entryY=0.5;entryDx=0;entryDy=0;" edge="1" parent="1" source="asxP7VaCUAAhCk6-8vd_-27" target="asxP7VaCUAAhCk6-8vd_-29">
          <mxGeometry relative="1" as="geometry" />
        </mxCell>
        <mxCell id="asxP7VaCUAAhCk6-8vd_-27" value="Profesor" style="rounded=0;arcSize=10;whiteSpace=wrap;html=1;align=center;" vertex="1" parent="1">
          <mxGeometry x="1080" y="380" width="100" height="40" as="geometry" />
        </mxCell>
        <mxCell id="asxP7VaCUAAhCk6-8vd_-29" value="antigÃ¼edad" style="ellipse;whiteSpace=wrap;html=1;align=center;dashed=1;" vertex="1" parent="1">
          <mxGeometry x="940" y="510" width="100" height="40" as="geometry" />
        </mxCell>
        <mxCell id="asxP7VaCUAAhCk6-8vd_-63" style="edgeStyle=orthogonalEdgeStyle;rounded=0;orthogonalLoop=1;jettySize=auto;html=1;entryX=0.5;entryY=0;entryDx=0;entryDy=0;" edge="1" parent="1" source="asxP7VaCUAAhCk6-8vd_-61" target="asxP7VaCUAAhCk6-8vd_-27">
          <mxGeometry relative="1" as="geometry" />
        </mxCell>
        <mxCell id="asxP7VaCUAAhCk6-8vd_-104" value="(1,*)" style="edgeLabel;html=1;align=center;verticalAlign=middle;resizable=0;points=[];" vertex="1" connectable="0" parent="asxP7VaCUAAhCk6-8vd_-63">
          <mxGeometry x="0.2571" relative="1" as="geometry">
            <mxPoint as="offset" />
          </mxGeometry>
        </mxCell>
        <mxCell id="asxP7VaCUAAhCk6-8vd_-61" value="Relationship" style="shape=rhombus;perimeter=rhombusPerimeter;whiteSpace=wrap;html=1;align=center;" vertex="1" parent="1">
          <mxGeometry x="1085" y="260" width="90" height="40" as="geometry" />
        </mxCell>
        <mxCell id="asxP7VaCUAAhCk6-8vd_-28" value="horas_totales" style="ellipse;whiteSpace=wrap;html=1;align=center;dashed=1;" vertex="1" parent="1">
          <mxGeometry x="940" y="565" width="100" height="40" as="geometry" />
        </mxCell>
        <mxCell id="asxP7VaCUAAhCk6-8vd_-31" style="edgeStyle=orthogonalEdgeStyle;rounded=0;orthogonalLoop=1;jettySize=auto;html=1;entryX=1;entryY=0.5;entryDx=0;entryDy=0;" edge="1" parent="1" source="asxP7VaCUAAhCk6-8vd_-27" target="asxP7VaCUAAhCk6-8vd_-28">
          <mxGeometry relative="1" as="geometry" />
        </mxCell>
        <mxCell id="asxP7VaCUAAhCk6-8vd_-73" value="condicion" style="ellipse;whiteSpace=wrap;html=1;align=center;" vertex="1" parent="1">
          <mxGeometry x="1780" y="245" width="100" height="40" as="geometry" />
        </mxCell>
        <mxCell id="asxP7VaCUAAhCk6-8vd_-74" value="promedio" style="ellipse;whiteSpace=wrap;html=1;align=center;dashed=1;" vertex="1" parent="1">
          <mxGeometry x="1780" y="380" width="100" height="40" as="geometry" />
        </mxCell>
        <mxCell id="asxP7VaCUAAhCk6-8vd_-92" style="edgeStyle=orthogonalEdgeStyle;rounded=0;orthogonalLoop=1;jettySize=auto;html=1;entryX=1;entryY=0.5;entryDx=0;entryDy=0;" edge="1" parent="1" target="asxP7VaCUAAhCk6-8vd_-89">
          <mxGeometry relative="1" as="geometry">
            <mxPoint x="1730.0001189061527" y="330.0344827586207" as="sourcePoint" />
          </mxGeometry>
        </mxCell>
        <mxCell id="asxP7VaCUAAhCk6-8vd_-93" style="edgeStyle=orthogonalEdgeStyle;rounded=0;orthogonalLoop=1;jettySize=auto;html=1;entryX=1;entryY=0.5;entryDx=0;entryDy=0;" edge="1" parent="1" target="asxP7VaCUAAhCk6-8vd_-90">
          <mxGeometry relative="1" as="geometry">
            <mxPoint x="1730.0000000000002" y="330" as="sourcePoint" />
          </mxGeometry>
        </mxCell>
        <mxCell id="asxP7VaCUAAhCk6-8vd_-94" style="edgeStyle=orthogonalEdgeStyle;rounded=0;orthogonalLoop=1;jettySize=auto;html=1;entryX=1;entryY=0.5;entryDx=0;entryDy=0;" edge="1" parent="1" target="asxP7VaCUAAhCk6-8vd_-91">
          <mxGeometry relative="1" as="geometry">
            <mxPoint x="1730.0001189061527" y="330.0344827586207" as="sourcePoint" />
          </mxGeometry>
        </mxCell>
        <mxCell id="asxP7VaCUAAhCk6-8vd_-88" style="edgeStyle=orthogonalEdgeStyle;rounded=0;orthogonalLoop=1;jettySize=auto;html=1;" edge="1" parent="1" source="asxP7VaCUAAhCk6-8vd_-87" target="asxP7VaCUAAhCk6-8vd_-68">
          <mxGeometry relative="1" as="geometry" />
        </mxCell>
        <mxCell id="asxP7VaCUAAhCk6-8vd_-87" value="aula" style="ellipse;whiteSpace=wrap;html=1;align=center;" vertex="1" parent="1">
          <mxGeometry x="1340" y="480" width="100" height="40" as="geometry" />
        </mxCell>
        <mxCell id="asxP7VaCUAAhCk6-8vd_-89" value="nota_1" style="ellipse;whiteSpace=wrap;html=1;align=center;" vertex="1" parent="1">
          <mxGeometry x="1590" y="250" width="100" height="40" as="geometry" />
        </mxCell>
        <mxCell id="asxP7VaCUAAhCk6-8vd_-90" value="nota_2" style="ellipse;whiteSpace=wrap;html=1;align=center;" vertex="1" parent="1">
          <mxGeometry x="1590" y="310" width="100" height="40" as="geometry" />
        </mxCell>
        <mxCell id="asxP7VaCUAAhCk6-8vd_-91" value="nota_final" style="ellipse;whiteSpace=wrap;html=1;align=center;" vertex="1" parent="1">
          <mxGeometry x="1590" y="380" width="100" height="40" as="geometry" />
        </mxCell>
        <mxCell id="asxP7VaCUAAhCk6-8vd_-98" value="primer_nombre" style="ellipse;whiteSpace=wrap;html=1;align=center;" vertex="1" parent="1">
          <mxGeometry x="760" y="250" width="100" height="40" as="geometry" />
        </mxCell>
        <mxCell id="asxP7VaCUAAhCk6-8vd_-99" value="segundo_nombre" style="ellipse;whiteSpace=wrap;html=1;align=center;" vertex="1" parent="1">
          <mxGeometry x="760" y="300" width="100" height="40" as="geometry" />
        </mxCell>
        <mxCell id="asxP7VaCUAAhCk6-8vd_-100" value="apellido" style="ellipse;whiteSpace=wrap;html=1;align=center;" vertex="1" parent="1">
          <mxGeometry x="760" y="350" width="100" height="40" as="geometry" />
        </mxCell>
        <mxCell id="asxP7VaCUAAhCk6-8vd_-106" value="fecha_ingreso" style="ellipse;whiteSpace=wrap;html=1;align=center;" vertex="1" parent="1">
          <mxGeometry x="2135" y="620" width="100" height="40" as="geometry" />
        </mxCell>
        <mxCell id="asxP7VaCUAAhCk6-8vd_-113" value="Profesor" style="swimlane;fontStyle=0;childLayout=stackLayout;horizontal=1;startSize=26;horizontalStack=0;resizeParent=1;resizeParentMax=0;resizeLast=0;collapsible=1;marginBottom=0;align=center;fontSize=14;" vertex="1" parent="1">
          <mxGeometry x="960" y="905" width="160" height="170" as="geometry" />
        </mxCell>
        <mxCell id="asxP7VaCUAAhCk6-8vd_-114" value="&lt;div&gt;-&lt;u&gt;id_profesor&lt;/u&gt;&lt;/div&gt;&lt;div&gt;-primer_nombre&amp;nbsp;&lt;/div&gt;&lt;div&gt;-segundo nombre&amp;nbsp;&lt;/div&gt;&lt;div&gt;-apellido&lt;/div&gt;&lt;div&gt;- profesion&lt;/div&gt;&lt;div&gt;-DNI&lt;/div&gt;&lt;div&gt;-horas totales&lt;/div&gt;&lt;div&gt;-fecha_ingreso&lt;/div&gt;&lt;div&gt;-antigÃ¼edad&lt;/div&gt;&lt;div&gt;&lt;br&gt;&lt;/div&gt;" style="text;strokeColor=none;fillColor=none;spacingLeft=4;spacingRight=4;overflow=hidden;rotatable=0;points=[[0,0.5],[1,0.5]];portConstraint=eastwest;fontSize=12;whiteSpace=wrap;html=1;" vertex="1" parent="asxP7VaCUAAhCk6-8vd_-113">
          <mxGeometry y="26" width="160" height="144" as="geometry" />
        </mxCell>
        <mxCell id="asxP7VaCUAAhCk6-8vd_-117" value="Alumno" style="swimlane;fontStyle=0;childLayout=stackLayout;horizontal=1;startSize=26;horizontalStack=0;resizeParent=1;resizeParentMax=0;resizeLast=0;collapsible=1;marginBottom=0;align=center;fontSize=14;" vertex="1" parent="1">
          <mxGeometry x="2040" y="910" width="160" height="160" as="geometry" />
        </mxCell>
        <mxCell id="asxP7VaCUAAhCk6-8vd_-118" value="&lt;div&gt;&lt;u&gt;-id_alumno&lt;/u&gt;&lt;/div&gt;&lt;div&gt;-nombre&lt;/div&gt;&lt;div&gt;-apellido&lt;/div&gt;&lt;div&gt;-num_matricula&lt;/div&gt;&lt;div&gt;-DNI&lt;/div&gt;&lt;div&gt;-fecha_ingreso&lt;/div&gt;&lt;div&gt;-cant_materias_aprobadas&lt;/div&gt;&lt;div&gt;-promedio_general&lt;/div&gt;&lt;div&gt;&lt;br&gt;&lt;/div&gt;" style="text;strokeColor=none;fillColor=none;spacingLeft=4;spacingRight=4;overflow=hidden;rotatable=0;points=[[0,0.5],[1,0.5]];portConstraint=eastwest;fontSize=12;whiteSpace=wrap;html=1;" vertex="1" parent="asxP7VaCUAAhCk6-8vd_-117">
          <mxGeometry y="26" width="160" height="134" as="geometry" />
        </mxCell>
        <mxCell id="asxP7VaCUAAhCk6-8vd_-121" value="Materia" style="swimlane;fontStyle=0;childLayout=stackLayout;horizontal=1;startSize=26;horizontalStack=0;resizeParent=1;resizeParentMax=0;resizeLast=0;collapsible=1;marginBottom=0;align=center;fontSize=14;" vertex="1" parent="1">
          <mxGeometry x="1490" y="930" width="160" height="120" as="geometry" />
        </mxCell>
        <mxCell id="asxP7VaCUAAhCk6-8vd_-122" value="&lt;div&gt;&lt;u&gt;-id_materia&lt;/u&gt;&lt;/div&gt;&lt;div&gt;-nombre&lt;/div&gt;&lt;div&gt;-programa&lt;/div&gt;&lt;div&gt;-carreras&lt;/div&gt;&lt;div&gt;-horas_totales&lt;/div&gt;&lt;div&gt;&lt;br&gt;&lt;/div&gt;" style="text;strokeColor=none;fillColor=none;spacingLeft=4;spacingRight=4;overflow=hidden;rotatable=0;points=[[0,0.5],[1,0.5]];portConstraint=eastwest;fontSize=12;whiteSpace=wrap;html=1;" vertex="1" parent="asxP7VaCUAAhCk6-8vd_-121">
          <mxGeometry y="26" width="160" height="94" as="geometry" />
        </mxCell>
        <mxCell id="asxP7VaCUAAhCk6-8vd_-144" style="edgeStyle=orthogonalEdgeStyle;rounded=0;orthogonalLoop=1;jettySize=auto;html=1;entryX=1;entryY=0.5;entryDx=0;entryDy=0;" edge="1" parent="1" source="asxP7VaCUAAhCk6-8vd_-125" target="asxP7VaCUAAhCk6-8vd_-133">
          <mxGeometry relative="1" as="geometry" />
        </mxCell>
        <mxCell id="asxP7VaCUAAhCk6-8vd_-145" value="(0,*)" style="edgeLabel;html=1;align=center;verticalAlign=middle;resizable=0;points=[];" vertex="1" connectable="0" parent="asxP7VaCUAAhCk6-8vd_-144">
          <mxGeometry x="-0.8804" relative="1" as="geometry">
            <mxPoint as="offset" />
          </mxGeometry>
        </mxCell>
        <mxCell id="asxP7VaCUAAhCk6-8vd_-125" value="Horario" style="swimlane;fontStyle=0;childLayout=stackLayout;horizontal=1;startSize=26;horizontalStack=0;resizeParent=1;resizeParentMax=0;resizeLast=0;collapsible=1;marginBottom=0;align=center;fontSize=14;" vertex="1" parent="1">
          <mxGeometry x="1490" y="1370" width="160" height="120" as="geometry" />
        </mxCell>
        <mxCell id="asxP7VaCUAAhCk6-8vd_-126" value="&lt;div&gt;-&lt;u&gt;id_horario&lt;/u&gt;&lt;/div&gt;&lt;div&gt;-dia&lt;/div&gt;&lt;div&gt;-hora_inicio&lt;/div&gt;&lt;div&gt;-hora_fin&lt;/div&gt;&lt;div&gt;-duracion&lt;/div&gt;&lt;div&gt;&lt;br&gt;&lt;/div&gt;" style="text;strokeColor=none;fillColor=none;spacingLeft=4;spacingRight=4;overflow=hidden;rotatable=0;points=[[0,0.5],[1,0.5]];portConstraint=eastwest;fontSize=12;whiteSpace=wrap;html=1;" vertex="1" parent="asxP7VaCUAAhCk6-8vd_-125">
          <mxGeometry y="26" width="160" height="94" as="geometry" />
        </mxCell>
        <mxCell id="asxP7VaCUAAhCk6-8vd_-130" value="ProfesorxMateria" style="swimlane;fontStyle=0;childLayout=stackLayout;horizontal=1;startSize=26;horizontalStack=0;resizeParent=1;resizeParentMax=0;resizeLast=0;collapsible=1;marginBottom=0;align=center;fontSize=14;" vertex="1" parent="1">
          <mxGeometry x="1240" y="930" width="160" height="120" as="geometry" />
        </mxCell>
        <mxCell id="asxP7VaCUAAhCk6-8vd_-131" value="&lt;div&gt;&lt;u&gt;-id_materia&lt;/u&gt;&lt;/div&gt;&lt;div&gt;-&lt;u&gt;id_profesor&lt;/u&gt;&lt;/div&gt;&lt;div&gt;-horas&lt;/div&gt;&lt;div&gt;&lt;br&gt;&lt;/div&gt;" style="text;strokeColor=none;fillColor=none;spacingLeft=4;spacingRight=4;overflow=hidden;rotatable=0;points=[[0,0.5],[1,0.5]];portConstraint=eastwest;fontSize=12;whiteSpace=wrap;html=1;" vertex="1" parent="asxP7VaCUAAhCk6-8vd_-130">
          <mxGeometry y="26" width="160" height="94" as="geometry" />
        </mxCell>
        <mxCell id="asxP7VaCUAAhCk6-8vd_-143" style="edgeStyle=orthogonalEdgeStyle;rounded=0;orthogonalLoop=1;jettySize=auto;html=1;entryX=0.515;entryY=1.011;entryDx=0;entryDy=0;entryPerimeter=0;" edge="1" parent="1" source="asxP7VaCUAAhCk6-8vd_-132" target="asxP7VaCUAAhCk6-8vd_-122">
          <mxGeometry relative="1" as="geometry">
            <Array as="points">
              <mxPoint x="1572" y="1100" />
            </Array>
          </mxGeometry>
        </mxCell>
        <mxCell id="asxP7VaCUAAhCk6-8vd_-146" value="(0,*)" style="edgeLabel;html=1;align=center;verticalAlign=middle;resizable=0;points=[];" vertex="1" connectable="0" parent="asxP7VaCUAAhCk6-8vd_-143">
          <mxGeometry x="0.6181" y="-1" relative="1" as="geometry">
            <mxPoint as="offset" />
          </mxGeometry>
        </mxCell>
        <mxCell id="asxP7VaCUAAhCk6-8vd_-132" value="HorarioxMateria" style="swimlane;fontStyle=0;childLayout=stackLayout;horizontal=1;startSize=26;horizontalStack=0;resizeParent=1;resizeParentMax=0;resizeLast=0;collapsible=1;marginBottom=0;align=center;fontSize=14;" vertex="1" parent="1">
          <mxGeometry x="1490" y="1150" width="160" height="120" as="geometry" />
        </mxCell>
        <mxCell id="asxP7VaCUAAhCk6-8vd_-133" value="&lt;div&gt;&lt;u&gt;-id_materia&lt;/u&gt;&lt;/div&gt;&lt;div&gt;-&lt;u&gt;id_horario&lt;/u&gt;&lt;/div&gt;&lt;div&gt;-aula&lt;/div&gt;&lt;div&gt;&lt;br&gt;&lt;/div&gt;" style="text;strokeColor=none;fillColor=none;spacingLeft=4;spacingRight=4;overflow=hidden;rotatable=0;points=[[0,0.5],[1,0.5]];portConstraint=eastwest;fontSize=12;whiteSpace=wrap;html=1;" vertex="1" parent="asxP7VaCUAAhCk6-8vd_-132">
          <mxGeometry y="26" width="160" height="94" as="geometry" />
        </mxCell>
        <mxCell id="asxP7VaCUAAhCk6-8vd_-134" value="AlumnoxMateria" style="swimlane;fontStyle=0;childLayout=stackLayout;horizontal=1;startSize=26;horizontalStack=0;resizeParent=1;resizeParentMax=0;resizeLast=0;collapsible=1;marginBottom=0;align=center;fontSize=14;" vertex="1" parent="1">
          <mxGeometry x="1750" y="915" width="190" height="150" as="geometry" />
        </mxCell>
        <mxCell id="asxP7VaCUAAhCk6-8vd_-135" value="&lt;div&gt;&lt;u&gt;-id_materia&lt;/u&gt;&lt;/div&gt;&lt;div&gt;-&lt;u&gt;id_alumno&lt;/u&gt;&lt;/div&gt;&lt;div&gt;&lt;div&gt;-condicion&lt;/div&gt;&lt;div&gt;-nota_1&lt;/div&gt;&lt;div&gt;-nota_2&lt;/div&gt;&lt;div&gt;-nota_final&lt;/div&gt;&lt;div&gt;-promedio&lt;/div&gt;&lt;/div&gt;&lt;div&gt;&lt;br&gt;&lt;/div&gt;" style="text;strokeColor=none;fillColor=none;spacingLeft=4;spacingRight=4;overflow=hidden;rotatable=0;points=[[0,0.5],[1,0.5]];portConstraint=eastwest;fontSize=12;whiteSpace=wrap;html=1;" vertex="1" parent="asxP7VaCUAAhCk6-8vd_-134">
          <mxGeometry y="26" width="190" height="124" as="geometry" />
        </mxCell>
        <mxCell id="asxP7VaCUAAhCk6-8vd_-138" style="edgeStyle=orthogonalEdgeStyle;rounded=0;orthogonalLoop=1;jettySize=auto;html=1;entryX=0;entryY=0.5;entryDx=0;entryDy=0;" edge="1" parent="1" source="asxP7VaCUAAhCk6-8vd_-114" target="asxP7VaCUAAhCk6-8vd_-131">
          <mxGeometry relative="1" as="geometry" />
        </mxCell>
        <mxCell id="asxP7VaCUAAhCk6-8vd_-147" value="(1,*)" style="edgeLabel;html=1;align=center;verticalAlign=middle;resizable=0;points=[];" vertex="1" connectable="0" parent="asxP7VaCUAAhCk6-8vd_-138">
          <mxGeometry x="-0.7673" y="1" relative="1" as="geometry">
            <mxPoint as="offset" />
          </mxGeometry>
        </mxCell>
        <mxCell id="asxP7VaCUAAhCk6-8vd_-139" style="edgeStyle=orthogonalEdgeStyle;rounded=0;orthogonalLoop=1;jettySize=auto;html=1;entryX=0;entryY=0.5;entryDx=0;entryDy=0;" edge="1" parent="1" source="asxP7VaCUAAhCk6-8vd_-131" target="asxP7VaCUAAhCk6-8vd_-122">
          <mxGeometry relative="1" as="geometry" />
        </mxCell>
        <mxCell id="asxP7VaCUAAhCk6-8vd_-148" value="(1,*)" style="edgeLabel;html=1;align=center;verticalAlign=middle;resizable=0;points=[];" vertex="1" connectable="0" parent="asxP7VaCUAAhCk6-8vd_-139">
          <mxGeometry x="0.6042" y="-1" relative="1" as="geometry">
            <mxPoint as="offset" />
          </mxGeometry>
        </mxCell>
        <mxCell id="asxP7VaCUAAhCk6-8vd_-140" style="edgeStyle=orthogonalEdgeStyle;rounded=0;orthogonalLoop=1;jettySize=auto;html=1;entryX=0;entryY=0.5;entryDx=0;entryDy=0;" edge="1" parent="1" source="asxP7VaCUAAhCk6-8vd_-122" target="asxP7VaCUAAhCk6-8vd_-135">
          <mxGeometry relative="1" as="geometry" />
        </mxCell>
        <mxCell id="asxP7VaCUAAhCk6-8vd_-149" value="(0,*)" style="edgeLabel;html=1;align=center;verticalAlign=middle;resizable=0;points=[];" vertex="1" connectable="0" parent="asxP7VaCUAAhCk6-8vd_-140">
          <mxGeometry x="-0.7409" y="-1" relative="1" as="geometry">
            <mxPoint as="offset" />
          </mxGeometry>
        </mxCell>
        <mxCell id="asxP7VaCUAAhCk6-8vd_-141" style="edgeStyle=orthogonalEdgeStyle;rounded=0;orthogonalLoop=1;jettySize=auto;html=1;entryX=0;entryY=0.5;entryDx=0;entryDy=0;" edge="1" parent="1" source="asxP7VaCUAAhCk6-8vd_-135" target="asxP7VaCUAAhCk6-8vd_-118">
          <mxGeometry relative="1" as="geometry" />
        </mxCell>
        <mxCell id="asxP7VaCUAAhCk6-8vd_-150" value="(0,*)" style="edgeLabel;html=1;align=center;verticalAlign=middle;resizable=0;points=[];" vertex="1" connectable="0" parent="asxP7VaCUAAhCk6-8vd_-141">
          <mxGeometry x="0.6284" relative="1" as="geometry">
            <mxPoint as="offset" />
          </mxGeometry>
        </mxCell>
        <mxCell id="asxP7VaCUAAhCk6-8vd_-151" value="conjunto_de_calificaciones" style="ellipse;whiteSpace=wrap;html=1;align=center;" vertex="1" parent="1">
          <mxGeometry x="1730" y="310" width="160" height="40" as="geometry" />
        </mxCell>
      </root>
    </mxGraphModel>
  </diagram>
</mxfile>
